<svg width="19" height="19" viewBox="0 0 19 19" fill="none" xmlns="http://www.w3.org/2000/svg">
	<path fill-rule="evenodd" clip-rule="evenodd" d="M19 19H15.09V12.35C15.09 10.5231 14.396 9.5 12.971 9.5C11.546 9.5 10.596 10.5596 10.596 12.35V19H6.833V6.32115H10.596V8.03846C10.596 8.03846 11.729 5.95577 14.433 5.95577C17.137 5.95577 19.037 7.6 19.037 10.9981V19H19ZM2.302 4.67692C1.023 4.67692 0 3.61731 0 2.33846C0 1.05962 1.023 0 2.302 0C3.581 0 4.604 1.05962 4.604 2.33846C4.604 3.61731 3.581 4.67692 2.302 4.67692ZM0.365 19H4.275V6.32115H0.365V19Z" fill="#0F1941"/>
</svg>
