<svg width="288" height="28" viewBox="0 0 288 28" fill="none" xmlns="http://www.w3.org/2000/svg">
<path d="M54 5H44C42.9 5 42 5.9 42 7V23L49 20L56 23V7C56 5.9 55.1 5 54 5ZM54 20L49 17.82L44 20V7H54V20Z" fill="#0F1941"/>
<path d="M12 4C6.48 4 2 8.48 2 14C2 19.52 6.48 24 12 24C17.52 24 22 19.52 22 14C22 8.48 17.52 4 12 4ZM7.35 20.5C8.66 19.56 10.26 19 12 19C13.74 19 15.34 19.56 16.65 20.5C15.34 21.44 13.74 22 12 22C10.26 22 8.66 21.44 7.35 20.5ZM18.14 19.12C16.45 17.8 14.32 17 12 17C9.68 17 7.55 17.8 5.86 19.12C4.7 17.73 4 15.95 4 14C4 9.58 7.58 6 12 6C16.42 6 20 9.58 20 14C20 15.95 19.3 17.73 18.14 19.12Z" fill="#0F1941"/>
<path d="M12 8C10.07 8 8.5 9.57 8.5 11.5C8.5 13.43 10.07 15 12 15C13.93 15 15.5 13.43 15.5 11.5C15.5 9.57 13.93 8 12 8ZM12 13C11.17 13 10.5 12.33 10.5 11.5C10.5 10.67 11.17 10 12 10C12.83 10 13.5 10.67 13.5 11.5C13.5 12.33 12.83 13 12 13Z" fill="#0F1941"/>
<path d="M120 6H119V4H117V6H109V4H107V6H106C104.89 6 104.01 6.9 104.01 8L104 22C104 23.1 104.89 24 106 24H120C121.1 24 122 23.1 122 22V8C122 6.9 121.1 6 120 6ZM120 22H106V12H120V22ZM120 10H106V8H120V10ZM110 16H108V14H110V16ZM114 16H112V14H114V16ZM118 16H116V14H118V16ZM110 20H108V18H110V20ZM114 20H112V18H114V20ZM118 20H116V18H118V20Z" fill="#0F1941"/>
<path d="M147.4 18.6L142.8 14L147.4 9.4L146 8L140 14L146 20L147.4 18.6ZM152.6 18.6L157.2 14L152.6 9.4L154 8L160 14L154 20L152.6 18.6Z" fill="#0F1941"/>
<path d="M190 11L188.59 12.41L190.17 14H182V16H190.17L188.59 17.58L190 19L194 15L190 11ZM178 8H185V6H178C176.9 6 176 6.9 176 8V22C176 23.1 176.9 24 178 24H185V22H178V8Z" fill="#0F1941"/>
<path d="M86 5H76C74.9 5 74 5.9 74 7V23L81 20L88 23V7C88 5.9 87.1 5 86 5Z" fill="#0F1941"/>
<path fill-rule="evenodd" clip-rule="evenodd" d="M224 25H220.09V18.35C220.09 16.5231 219.396 15.5 217.971 15.5C216.546 15.5 215.596 16.5596 215.596 18.35V25H211.833V12.3212H215.596V14.0385C215.596 14.0385 216.729 11.9558 219.433 11.9558C222.137 11.9558 224.037 13.6 224.037 16.9981V25H224ZM207.302 10.6769C206.023 10.6769 205 9.61731 205 8.33846C205 7.05962 206.023 6 207.302 6C208.581 6 209.604 7.05962 209.604 8.33846C209.604 9.61731 208.581 10.6769 207.302 10.6769ZM205.365 25H209.275V12.3212H205.365V25Z" fill="#0F1941"/>
<path d="M251 10.41L249.59 9L244 14.59L238.41 9L237 10.41L242.59 16L237 21.59L238.41 23L244 17.41L249.59 23L251 21.59L245.41 16L251 10.41Z" fill="#0F1941"/>
<path d="M284 6.5H280V4.5C280 3.39 279.11 2.5 278 2.5H274C272.89 2.5 272 3.39 272 4.5V6.5H268C266.89 6.5 266.01 7.39 266.01 8.5L266 19.5C266 20.61 266.89 21.5 268 21.5H284C285.11 21.5 286 20.61 286 19.5V8.5C286 7.39 285.11 6.5 284 6.5ZM278 6.5H274V4.5H278V6.5Z" fill="black"/>
</svg>
